<svg xmlns="http://www.w3.org/2000/svg" viewBox="0 0 24 24" width="32" height="32" aria-hidden="true">
  <path fill="#7360F2" d="M11.4 0C9.473.028 5.333.344 2.986 2.448 1.072 4.18.028 6.733 0 10.667c.028 2.389.389 4.389 1.083 6.056L0 24l7.5-1.944c1.556.833 3.333 1.389 5.278 1.611 2.722.333 5.556-.278 8.056-1.722 2.5-1.444 4.389-3.5 5.5-5.944 1.111-2.444 1.5-5.167 1.167-8.056-.5-4.222-2.722-7.722-6.222-9.833C16.722.722 14.222.056 11.4 0zm.278 2.167c2.278.028 4.278.5 5.944 1.389 2.889 1.611 4.722 4.444 5.111 7.833.333 2.5.056 4.833-.722 6.833-.778 2-2 3.667-3.5 4.833-1.5 1.167-3.278 1.944-5.278 2.278-1.722.278-3.5.111-5.111-.5l-.778-.389-2.722.722.722-2.667-.333-.667c-1.056-2.111-1.389-4.5-.944-6.833.5-2.5 2.167-4.833 4.5-6.5 1.722-1.222 3.722-1.889 5.889-2z"/>
</svg>
